<?xml version="1.0" standalone="no"?>
<!DOCTYPE svg PUBLIC "-//W3C//DTD SVG 20010904//EN"
 "http://www.w3.org/TR/2001/REC-SVG-20010904/DTD/svg10.dtd">
<svg version="1.0" xmlns="http://www.w3.org/2000/svg"
 width="190.000000pt" height="172.000000pt" viewBox="0 0 190.000000 172.000000"
 preserveAspectRatio="xMidYMid meet">

<g transform="translate(0.000000,172.000000) scale(0.100000,-0.100000)"
fill="#000000" stroke="none">
<path d="M134 1666 c-67 -29 -64 3 -64 -659 l0 -599 34 -34 34 -34 820 0 c811
0 820 0 845 21 15 11 31 38 37 60 13 47 12 1128 -1 1175 -5 16 -20 41 -35 55
l-26 24 -806 2 c-660 2 -813 0 -838 -11z m1576 -641 l0 -495 -750 0 c-593 0
-750 3 -750 13 -1 6 -1 221 0 477 0 256 0 473 0 483 0 16 42 17 750 17 l750 0
0 -495z"/>
<path d="M1405 1205 c-14 -13 -25 -36 -25 -50 0 -20 -17 -42 -66 -88 -90 -84
-101 -90 -155 -93 -47 -2 -51 0 -126 64 -56 49 -79 76 -86 102 -12 49 -34 70
-73 70 -37 0 -74 -37 -74 -75 0 -18 -36 -51 -157 -146 -146 -114 -161 -123
-202 -123 -35 -1 -48 -6 -63 -27 -53 -71 48 -154 107 -89 10 11 20 32 24 48 5
23 41 57 162 154 l156 124 48 -5 c39 -5 60 -17 125 -71 58 -48 83 -76 95 -108
11 -28 26 -47 42 -53 51 -19 102 16 104 71 0 18 23 45 87 102 75 66 92 77 124
78 27 0 42 7 57 26 12 15 21 34 21 44 0 10 -9 29 -21 44 -27 34 -71 35 -104 1z"/>
<path d="M659 188 l-100 -103 201 -3 c110 -1 290 -1 400 0 l200 3 -102 103
-101 102 -200 0 -199 0 -99 -102z"/>
</g>
</svg>
